<svg height="80px" viewBox="0 -72 480.00007 480" width="80" xmlns="http://www.w3.org/2000/svg"><path d="m348.640625 260 26.160156 68h65.199219c1.796875.003906 3.589844-.15625 5.359375-.480469l-61.359375-159.519531zm0 0" fill="#58ab6d"/><path d="m440 8h-400c-17.671875 0-32 14.328125-32 32v256c0 17.671875 14.328125 32 32 32h88l32-64 30.28125 60.558594 41.71875-108.558594 22.160156 57.601562 49.839844-129.601562 44.640625 116 35.359375-92 61.359375 159.519531c15.375-2.613281 26.628906-15.925781 26.640625-31.519531v-256c0-17.671875-14.328125-32-32-32zm-325.257812 165.257812 5.65625-5.65625zm0-90.515624 5.65625 5.65625zm45.257812 77.257812c-17.671875 0-32-14.328125-32-32s14.328125-32 32-32 32 14.328125 32 32-14.328125 32-32 32zm39.601562 7.601562 5.65625 5.65625zm0-79.203124 5.65625-5.65625zm16.398438 39.601562" fill="#78b9eb"/><path d="m192 128c0 17.671875-14.328125 32-32 32s-32-14.328125-32-32 14.328125-32 32-32 32 14.328125 32 32zm0 0" fill="#ffda44"/><path d="m304 144-49.839844 129.601562 20.878906 54.398438h99.761719l-26.160156-68zm0 0" fill="#317743"/><path d="m232 216-41.71875 108.558594 1.71875 3.441406h83.039062l-20.878906-54.398438zm0 0" fill="#86d09a"/><path d="m160 264-32 64h60.960938l1.320312-3.441406zm0 0" fill="#3f7a4e"/><path d="m188.960938 328h3.039062l-1.71875-3.441406zm0 0" fill="#c3e0f6"/><g fill="#202020"><path d="m440 0h-400c-22.082031.0273438-39.9726562 17.917969-40 40v256c.0273438 22.082031 17.917969 39.972656 40 40 0 0 404.550781-.191406 406.695312-.582031 19.25-3.222657 33.339844-19.902344 33.304688-39.417969v-256c-.027344-22.082031-17.917969-39.9726562-40-40zm-299.054688 320 19.054688-38.113281 19.054688 38.113281zm92.253907 0h-32.589844l31.390625-81.703125 31.398438 81.703125zm147.097656 0-23.089844-60 26.792969-69.710938 49.886719 129.710938zm-17.152344 0h-82.609375l-17.808594-46.398438 41.273438-107.320312zm100.855469-24c-.015625 9.289062-5.429688 17.722656-13.871094 21.601562l-58.65625-152.472656c-1.183594-3.097656-4.15625-5.144531-7.472656-5.144531s-6.289062 2.046875-7.472656 5.144531l-27.894532 72.582032-37.160156-96.582032c-1.183594-3.097656-4.15625-5.144531-7.472656-5.144531s-6.289062 2.046875-7.472656 5.144531l-42.398438 110.183594-14.679687-38.183594c-1.1875-3.097656-4.15625-5.144531-7.472657-5.144531-3.316406 0-6.289062 2.046875-7.472656 5.144531l-35.199218 91.613282-22.105469-44.316407c-1.503907-2.523437-4.222657-4.070312-7.160157-4.070312-2.933593 0-5.65625 1.546875-7.160156 4.070312l-29.824218 59.574219h-83.054688c-13.253906 0-24-10.746094-24-24v-256c0-13.253906 10.746094-24 24-24h400c13.253906 0 24 10.746094 24 24zm0 0"/><path d="m160 88c-22.089844 0-40 17.910156-40 40s17.910156 40 40 40 40-17.910156 40-40c-.027344-22.082031-17.917969-39.972656-40-40zm0 64c-13.253906 0-24-10.746094-24-24s10.746094-24 24-24 24 10.746094 24 24-10.746094 24-24 24zm0 0"/><path d="m160 80c4.417969 0 8-3.582031 8-8v-8c0-4.417969-3.582031-8-8-8s-8 3.582031-8 8v8c0 4.417969 3.582031 8 8 8zm0 0"/><path d="m114.742188 94.054688c3.140624 3.03125 8.128906 2.988281 11.214843-.097657 3.085938-3.085937 3.128907-8.074219.097657-11.214843l-5.65625-5.652344c-3.136719-3.035156-8.128907-2.988282-11.214844.09375-3.085938 3.085937-3.128906 8.078125-.09375 11.214844zm0 0"/><path d="m112 128c0-4.417969-3.582031-8-8-8h-8c-4.417969 0-8 3.582031-8 8s3.582031 8 8 8h8c4.417969 0 8-3.582031 8-8zm0 0"/><path d="m114.742188 161.945312-5.652344 5.65625c-2.082032 2.007813-2.914063 4.980469-2.183594 7.777344s2.917969 4.984375 5.714844 5.714844 5.769531-.101562 7.777344-2.183594l5.65625-5.652344c2.082031-2.011718 2.914062-4.984374 2.183593-7.78125-.734375-2.796874-2.917969-4.980468-5.714843-5.714843-2.796876-.730469-5.769532.101562-7.78125 2.183593zm0 0"/><path d="m160 176c-4.417969 0-8 3.582031-8 8v8c0 4.417969 3.582031 8 8 8s8-3.582031 8-8v-8c0-4.417969-3.582031-8-8-8zm0 0"/><path d="m205.257812 161.945312c-2.011718-2.082031-4.984374-2.914062-7.78125-2.183593-2.796874.734375-4.980468 2.917969-5.714843 5.714843-.730469 2.796876.101562 5.769532 2.183593 7.78125l5.65625 5.652344c3.136719 3.035156 8.128907 2.992188 11.214844-.09375 3.085938-3.085937 3.128906-8.078125.09375-11.214844zm0 0"/><path d="m224 120h-8c-4.417969 0-8 3.582031-8 8s3.582031 8 8 8h8c4.417969 0 8-3.582031 8-8s-3.582031-8-8-8zm0 0"/><path d="m199.601562 96.398438c2.121094 0 4.15625-.84375 5.65625-2.34375l5.652344-5.65625c3.035156-3.136719 2.992188-8.128907-.09375-11.214844-3.085937-3.082032-8.078125-3.128906-11.214844-.09375l-5.65625 5.652344c-2.289062 2.289062-2.972656 5.730468-1.734374 8.71875 1.238281 2.988281 4.152343 4.9375 7.390624 4.9375zm0 0"/></g></svg>